<svg id="visual" viewBox="0 0 1920 1080" width="1920" height="1080" xmlns="http://www.w3.org/2000/svg" xmlns:xlink="http://www.w3.org/1999/xlink" version="1.1"><rect x="0" y="0" width="1920" height="1080" fill="#020303"></rect><defs><linearGradient id="grad1_0" x1="43.8%" y1="100%" x2="100%" y2="0%"><stop offset="14.444444444444446%" stop-color="#10a145" stop-opacity="1"></stop><stop offset="85.55555555555554%" stop-color="#10a145" stop-opacity="1"></stop></linearGradient></defs><defs><linearGradient id="grad1_1" x1="43.8%" y1="100%" x2="100%" y2="0%"><stop offset="14.444444444444446%" stop-color="#10a145" stop-opacity="1"></stop><stop offset="85.55555555555554%" stop-color="#008648" stop-opacity="1"></stop></linearGradient></defs><defs><linearGradient id="grad1_2" x1="43.8%" y1="100%" x2="100%" y2="0%"><stop offset="14.444444444444446%" stop-color="#006c46" stop-opacity="1"></stop><stop offset="85.55555555555554%" stop-color="#008648" stop-opacity="1"></stop></linearGradient></defs><defs><linearGradient id="grad1_3" x1="43.8%" y1="100%" x2="100%" y2="0%"><stop offset="14.444444444444446%" stop-color="#006c46" stop-opacity="1"></stop><stop offset="85.55555555555554%" stop-color="#00513e" stop-opacity="1"></stop></linearGradient></defs><defs><linearGradient id="grad1_4" x1="43.8%" y1="100%" x2="100%" y2="0%"><stop offset="14.444444444444446%" stop-color="#003830" stop-opacity="1"></stop><stop offset="85.55555555555554%" stop-color="#00513e" stop-opacity="1"></stop></linearGradient></defs><defs><linearGradient id="grad1_5" x1="43.8%" y1="100%" x2="100%" y2="0%"><stop offset="14.444444444444446%" stop-color="#003830" stop-opacity="1"></stop><stop offset="85.55555555555554%" stop-color="#04201f" stop-opacity="1"></stop></linearGradient></defs><defs><linearGradient id="grad1_6" x1="43.8%" y1="100%" x2="100%" y2="0%"><stop offset="14.444444444444446%" stop-color="#020303" stop-opacity="1"></stop><stop offset="85.55555555555554%" stop-color="#04201f" stop-opacity="1"></stop></linearGradient></defs><defs><linearGradient id="grad2_0" x1="0%" y1="100%" x2="56.3%" y2="0%"><stop offset="14.444444444444446%" stop-color="#10a145" stop-opacity="1"></stop><stop offset="85.55555555555554%" stop-color="#10a145" stop-opacity="1"></stop></linearGradient></defs><defs><linearGradient id="grad2_1" x1="0%" y1="100%" x2="56.3%" y2="0%"><stop offset="14.444444444444446%" stop-color="#008648" stop-opacity="1"></stop><stop offset="85.55555555555554%" stop-color="#10a145" stop-opacity="1"></stop></linearGradient></defs><defs><linearGradient id="grad2_2" x1="0%" y1="100%" x2="56.3%" y2="0%"><stop offset="14.444444444444446%" stop-color="#008648" stop-opacity="1"></stop><stop offset="85.55555555555554%" stop-color="#006c46" stop-opacity="1"></stop></linearGradient></defs><defs><linearGradient id="grad2_3" x1="0%" y1="100%" x2="56.3%" y2="0%"><stop offset="14.444444444444446%" stop-color="#00513e" stop-opacity="1"></stop><stop offset="85.55555555555554%" stop-color="#006c46" stop-opacity="1"></stop></linearGradient></defs><defs><linearGradient id="grad2_4" x1="0%" y1="100%" x2="56.3%" y2="0%"><stop offset="14.444444444444446%" stop-color="#00513e" stop-opacity="1"></stop><stop offset="85.55555555555554%" stop-color="#003830" stop-opacity="1"></stop></linearGradient></defs><defs><linearGradient id="grad2_5" x1="0%" y1="100%" x2="56.3%" y2="0%"><stop offset="14.444444444444446%" stop-color="#04201f" stop-opacity="1"></stop><stop offset="85.55555555555554%" stop-color="#003830" stop-opacity="1"></stop></linearGradient></defs><defs><linearGradient id="grad2_6" x1="0%" y1="100%" x2="56.3%" y2="0%"><stop offset="14.444444444444446%" stop-color="#04201f" stop-opacity="1"></stop><stop offset="85.55555555555554%" stop-color="#020303" stop-opacity="1"></stop></linearGradient></defs><g transform="translate(1920, 1080)"><path d="M-972 0C-929 -35.2 -886.1 -70.4 -869.6 -105.6C-853.2 -140.8 -863.2 -175.9 -870.9 -214.7C-878.7 -253.5 -884.1 -295.9 -871.4 -330.5C-858.8 -365.1 -828.1 -391.8 -810.2 -425.2C-792.3 -458.6 -787.1 -498.8 -769.5 -531.1C-751.9 -563.5 -721.7 -588.1 -697.6 -618C-673.5 -648 -655.4 -683.2 -630.6 -711.8C-605.9 -740.4 -574.4 -762.4 -545.3 -790.1C-516.3 -817.7 -489.6 -851.1 -451.7 -860.7C-413.8 -870.3 -364.8 -856.2 -322.7 -850.9C-280.6 -845.6 -245.5 -849.1 -211.6 -858.3C-177.6 -867.5 -144.6 -882.5 -109.6 -902.4C-74.5 -922.3 -37.2 -947.1 0 -972L0 0Z" fill="#041514"></path><path d="M-833.1 0C-796.3 -30.2 -759.5 -60.4 -745.4 -90.5C-731.3 -120.6 -739.9 -150.8 -746.5 -184C-753.1 -217.2 -757.8 -253.6 -746.9 -283.3C-736.1 -312.9 -709.8 -335.8 -694.5 -364.5C-679.1 -393.1 -674.7 -427.5 -659.6 -455.3C-644.4 -483 -618.6 -504.1 -598 -529.7C-577.3 -555.4 -561.8 -585.6 -540.5 -610.1C-519.3 -634.7 -492.4 -653.5 -467.4 -677.2C-442.5 -700.9 -419.6 -729.5 -387.2 -737.7C-354.7 -745.9 -312.7 -733.9 -276.6 -729.3C-240.5 -724.8 -210.5 -727.8 -181.3 -735.7C-152.2 -743.6 -124 -756.4 -93.9 -773.5C-63.8 -790.5 -31.9 -811.8 0 -833.1L0 0Z" fill="#002c28"></path><path d="M-694.3 0C-663.6 -25.2 -632.9 -50.3 -621.2 -75.4C-609.4 -100.5 -616.6 -125.6 -622.1 -153.3C-627.6 -181 -631.5 -211.4 -622.5 -236.1C-613.4 -260.8 -591.5 -279.9 -578.7 -303.7C-565.9 -327.6 -562.2 -356.3 -549.6 -379.4C-537 -402.5 -515.5 -420.1 -498.3 -441.5C-481.1 -462.8 -468.1 -488 -450.4 -508.5C-432.8 -528.9 -410.3 -544.6 -389.5 -564.3C-368.8 -584.1 -349.7 -607.9 -322.7 -614.8C-295.6 -621.6 -260.5 -611.5 -230.5 -607.8C-200.4 -604 -175.4 -606.5 -151.1 -613.1C-126.8 -619.7 -103.3 -630.3 -78.3 -644.6C-53.2 -658.8 -26.6 -676.5 0 -694.3L0 0Z" fill="#004538"></path><path d="M-555.4 0C-530.9 -20.1 -506.3 -40.2 -496.9 -60.3C-487.5 -80.4 -493.3 -100.5 -497.7 -122.7C-502.1 -144.8 -505.2 -169.1 -498 -188.9C-490.7 -208.6 -473.2 -223.9 -463 -243C-452.7 -262.1 -449.8 -285 -439.7 -303.5C-429.6 -322 -412.4 -336.1 -398.6 -353.2C-384.9 -370.3 -374.5 -390.4 -360.4 -406.8C-346.2 -423.1 -328.2 -435.7 -311.6 -451.5C-295 -467.3 -279.8 -486.3 -258.1 -491.8C-236.5 -497.3 -208.4 -489.2 -184.4 -486.2C-160.4 -483.2 -140.3 -485.2 -120.9 -490.5C-101.5 -495.7 -82.7 -504.3 -62.6 -515.6C-42.6 -527 -21.3 -541.2 0 -555.4L0 0Z" fill="#005e42"></path><path d="M-416.6 0C-398.2 -15.1 -379.7 -30.2 -372.7 -45.3C-365.6 -60.3 -369.9 -75.4 -373.3 -92C-376.6 -108.6 -378.9 -126.8 -373.5 -141.6C-368.1 -156.5 -354.9 -167.9 -347.2 -182.2C-339.5 -196.6 -337.3 -213.8 -329.8 -227.6C-322.2 -241.5 -309.3 -252 -299 -264.9C-288.6 -277.7 -280.9 -292.8 -270.3 -305.1C-259.7 -317.3 -246.2 -326.7 -233.7 -338.6C-221.3 -350.4 -209.8 -364.7 -193.6 -368.9C-177.4 -373 -156.3 -366.9 -138.3 -364.7C-120.3 -362.4 -105.2 -363.9 -90.7 -367.8C-76.1 -371.8 -62 -378.2 -47 -386.7C-31.9 -395.3 -16 -405.9 0 -416.6L0 0Z" fill="#007948"></path><path d="M-277.7 0C-265.4 -10.1 -253.2 -20.1 -248.5 -30.2C-243.8 -40.2 -246.6 -50.3 -248.8 -61.3C-251 -72.4 -252.6 -84.5 -249 -94.4C-245.4 -104.3 -236.6 -111.9 -231.5 -121.5C-226.4 -131 -224.9 -142.5 -219.9 -151.8C-214.8 -161 -206.2 -168 -199.3 -176.6C-192.4 -185.1 -187.3 -195.2 -180.2 -203.4C-173.1 -211.6 -164.1 -217.8 -155.8 -225.7C-147.5 -233.6 -139.9 -243.2 -129.1 -245.9C-118.2 -248.6 -104.2 -244.6 -92.2 -243.1C-80.2 -241.6 -70.2 -242.6 -60.4 -245.2C-50.7 -247.9 -41.3 -252.1 -31.3 -257.8C-21.3 -263.5 -10.6 -270.6 0 -277.7L0 0Z" fill="#009448"></path><path d="M-138.9 0C-132.7 -5 -126.6 -10.1 -124.2 -15.1C-121.9 -20.1 -123.3 -25.1 -124.4 -30.7C-125.5 -36.2 -126.3 -42.3 -124.5 -47.2C-122.7 -52.2 -118.3 -56 -115.7 -60.7C-113.2 -65.5 -112.4 -71.3 -109.9 -75.9C-107.4 -80.5 -103.1 -84 -99.7 -88.3C-96.2 -92.6 -93.6 -97.6 -90.1 -101.7C-86.6 -105.8 -82.1 -108.9 -77.9 -112.9C-73.8 -116.8 -69.9 -121.6 -64.5 -123C-59.1 -124.3 -52.1 -122.3 -46.1 -121.6C-40.1 -120.8 -35.1 -121.3 -30.2 -122.6C-25.4 -123.9 -20.7 -126.1 -15.7 -128.9C-10.6 -131.8 -5.3 -135.3 0 -138.9L0 0Z" fill="#10a145"></path></g><g transform="translate(0, 0)"><path d="M972 0C957.1 38.6 942.3 77.2 919.2 111.6C896.2 146 865.1 176.2 850.5 209.6C836 243.1 838.1 279.9 829.4 314.5C820.6 349.2 801.1 381.7 776.5 407.6C751.9 433.5 722.2 452.8 720.1 497.1C718 541.3 743.4 610.5 726.1 643.2C708.7 676 648.5 672.3 612.7 691.6C577 711 565.6 753.3 541.4 784.3C517.1 815.3 480 834.9 438.7 835.9C397.4 836.8 352.1 819.2 319.1 841.5C286.2 863.9 265.7 926.2 232.6 943.8C199.5 961.3 153.9 933.9 113.1 931.2C72.2 928.4 36.1 950.2 0 972L0 0Z" fill="#041514"></path><path d="M833.1 0C820.4 33.1 807.7 66.2 787.9 95.7C768.2 125.1 741.5 151 729 179.7C716.6 208.4 718.3 239.9 710.9 269.6C703.4 299.3 686.7 327.1 665.6 349.3C644.5 371.5 619.1 388.1 617.2 426C615.4 464 637.2 523.3 622.3 551.3C607.4 579.4 555.9 576.2 525.2 592.8C494.5 609.4 484.8 645.7 464 672.3C443.2 698.8 411.4 715.6 376 716.5C340.7 717.3 301.8 702.1 273.6 721.3C245.3 740.5 227.7 793.9 199.4 808.9C171 823.9 131.9 800.5 96.9 798.1C61.9 795.8 30.9 814.5 0 833.1L0 0Z" fill="#002c28"></path><path d="M694.3 0C683.7 27.6 673 55.2 656.6 79.7C640.2 104.3 617.9 125.8 607.5 149.7C597.1 173.7 598.6 199.9 592.4 224.7C586.2 249.4 572.2 272.6 554.7 291.1C537.1 309.6 515.9 323.4 514.4 355C512.8 386.7 531 436.1 518.6 459.4C506.2 482.8 463.2 480.2 437.7 494C412.1 507.8 404 538.1 386.7 560.2C369.4 582.3 342.8 596.4 313.4 597.1C283.9 597.7 251.5 585.1 228 601.1C204.4 617 189.8 661.6 166.2 674.1C142.5 686.6 109.9 667.1 80.8 665.1C51.6 663.1 25.8 678.7 0 694.3L0 0Z" fill="#004538"></path><path d="M555.4 0C546.9 22.1 538.4 44.1 525.3 63.8C512.1 83.4 494.3 100.7 486 119.8C477.7 138.9 478.9 159.9 473.9 179.7C468.9 199.5 457.8 218.1 443.7 232.9C429.7 247.7 412.7 258.7 411.5 284C410.3 309.3 424.8 348.8 414.9 367.6C405 386.3 370.6 384.2 350.1 395.2C329.7 406.3 323.2 430.5 309.4 448.2C295.5 465.9 274.3 477.1 250.7 477.6C227.1 478.2 201.2 468.1 182.4 480.9C163.5 493.6 151.8 529.3 132.9 539.3C114 549.3 88 533.7 64.6 532.1C41.3 530.5 20.6 543 0 555.4L0 0Z" fill="#005e42"></path><path d="M416.6 0C410.2 16.5 403.8 33.1 394 47.8C384.1 62.6 370.8 75.5 364.5 89.8C358.3 104.2 359.2 120 355.4 134.8C351.7 149.6 343.3 163.6 332.8 174.7C322.3 185.8 309.5 194.1 308.6 213C307.7 232 318.6 261.6 311.2 275.7C303.7 289.7 277.9 288.1 262.6 296.4C247.3 304.7 242.4 322.9 232 336.1C221.6 349.4 205.7 357.8 188 358.2C170.3 358.6 150.9 351.1 136.8 360.6C122.7 370.2 113.9 397 99.7 404.5C85.5 412 66 400.3 48.5 399.1C30.9 397.9 15.5 407.2 0 416.6L0 0Z" fill="#007948"></path><path d="M277.7 0C273.5 11 269.2 22.1 262.6 31.9C256.1 41.7 247.2 50.3 243 59.9C238.9 69.5 239.4 80 237 89.9C234.5 99.8 228.9 109 221.9 116.4C214.8 123.8 206.4 129.4 205.7 142C205.1 154.7 212.4 174.4 207.4 183.8C202.5 193.1 185.3 192.1 175.1 197.6C164.8 203.1 161.6 215.2 154.7 224.1C147.7 232.9 137.1 238.5 125.3 238.8C113.6 239.1 100.6 234 91.2 240.4C81.8 246.8 75.9 264.6 66.5 269.6C57 274.6 44 266.8 32.3 266C20.6 265.3 10.3 271.5 0 277.7L0 0Z" fill="#009448"></path><path d="M138.9 0C136.7 5.5 134.6 11 131.3 15.9C128 20.9 123.6 25.2 121.5 29.9C119.4 34.7 119.7 40 118.5 44.9C117.2 49.9 114.4 54.5 110.9 58.2C107.4 61.9 103.2 64.7 102.9 71C102.6 77.3 106.2 87.2 103.7 91.9C101.2 96.6 92.6 96 87.5 98.8C82.4 101.6 80.8 107.6 77.3 112C73.9 116.5 68.6 119.3 62.7 119.4C56.8 119.5 50.3 117 45.6 120.2C40.9 123.4 38 132.3 33.2 134.8C28.5 137.3 22 133.4 16.2 133C10.3 132.6 5.2 135.7 0 138.9L0 0Z" fill="#10a145"></path></g></svg>