<svg id="visual" viewBox="0 0 1920 1080" width="1920" height="1080" xmlns="http://www.w3.org/2000/svg" xmlns:xlink="http://www.w3.org/1999/xlink" version="1.1"><rect x="0" y="0" width="1920" height="1080" fill="#020303"></rect><path d="M0 653L18.8 657.2C37.7 661.3 75.3 669.7 113 673C150.7 676.3 188.3 674.7 226 670.2C263.7 665.7 301.3 658.3 339 660.7C376.7 663 414.3 675 452 677.7C489.7 680.3 527.3 673.7 565 677.2C602.7 680.7 640.3 694.3 678 700.7C715.7 707 753.3 706 791 702.3C828.7 698.7 866.3 692.3 903.8 685.8C941.3 679.3 978.7 672.7 1016.2 670.3C1053.7 668 1091.3 670 1129 668.5C1166.7 667 1204.3 662 1242 664.8C1279.7 667.7 1317.3 678.3 1355 682.8C1392.7 687.3 1430.3 685.7 1468 682.5C1505.7 679.3 1543.3 674.7 1581 673.3C1618.7 672 1656.3 674 1694 676.7C1731.7 679.3 1769.3 682.7 1807 679C1844.7 675.3 1882.3 664.7 1901.2 659.3L1920 654L1920 1081L1901.2 1081C1882.3 1081 1844.7 1081 1807 1081C1769.3 1081 1731.7 1081 1694 1081C1656.3 1081 1618.7 1081 1581 1081C1543.3 1081 1505.7 1081 1468 1081C1430.3 1081 1392.7 1081 1355 1081C1317.3 1081 1279.7 1081 1242 1081C1204.3 1081 1166.7 1081 1129 1081C1091.3 1081 1053.7 1081 1016.2 1081C978.7 1081 941.3 1081 903.8 1081C866.3 1081 828.7 1081 791 1081C753.3 1081 715.7 1081 678 1081C640.3 1081 602.7 1081 565 1081C527.3 1081 489.7 1081 452 1081C414.3 1081 376.7 1081 339 1081C301.3 1081 263.7 1081 226 1081C188.3 1081 150.7 1081 113 1081C75.3 1081 37.7 1081 18.8 1081L0 1081Z" fill="#10a145"></path><path d="M0 741L18.8 734.8C37.7 728.7 75.3 716.3 113 706.7C150.7 697 188.3 690 226 689.3C263.7 688.7 301.3 694.3 339 703.3C376.7 712.3 414.3 724.7 452 725C489.7 725.3 527.3 713.7 565 709.2C602.7 704.7 640.3 707.3 678 712.8C715.7 718.3 753.3 726.7 791 729C828.7 731.3 866.3 727.7 903.8 728.2C941.3 728.7 978.7 733.3 1016.2 733.2C1053.7 733 1091.3 728 1129 724.2C1166.7 720.3 1204.3 717.7 1242 711.2C1279.7 704.7 1317.3 694.3 1355 688.7C1392.7 683 1430.3 682 1468 683.2C1505.7 684.3 1543.3 687.7 1581 694.5C1618.7 701.3 1656.3 711.7 1694 717.7C1731.7 723.7 1769.3 725.3 1807 728.7C1844.7 732 1882.3 737 1901.2 739.5L1920 742L1920 1081L1901.2 1081C1882.3 1081 1844.7 1081 1807 1081C1769.3 1081 1731.7 1081 1694 1081C1656.3 1081 1618.7 1081 1581 1081C1543.3 1081 1505.7 1081 1468 1081C1430.3 1081 1392.7 1081 1355 1081C1317.3 1081 1279.7 1081 1242 1081C1204.3 1081 1166.7 1081 1129 1081C1091.3 1081 1053.7 1081 1016.2 1081C978.7 1081 941.3 1081 903.8 1081C866.3 1081 828.7 1081 791 1081C753.3 1081 715.7 1081 678 1081C640.3 1081 602.7 1081 565 1081C527.3 1081 489.7 1081 452 1081C414.3 1081 376.7 1081 339 1081C301.3 1081 263.7 1081 226 1081C188.3 1081 150.7 1081 113 1081C75.3 1081 37.7 1081 18.8 1081L0 1081Z" fill="#009647"></path><path d="M0 766L18.8 764.3C37.7 762.7 75.3 759.3 113 761C150.7 762.7 188.3 769.3 226 766.3C263.7 763.3 301.3 750.7 339 743.2C376.7 735.7 414.3 733.3 452 734.2C489.7 735 527.3 739 565 744.2C602.7 749.3 640.3 755.7 678 754.7C715.7 753.7 753.3 745.3 791 737.5C828.7 729.7 866.3 722.3 903.8 726.7C941.3 731 978.7 747 1016.2 747.3C1053.7 747.7 1091.3 732.3 1129 726.2C1166.7 720 1204.3 723 1242 728C1279.7 733 1317.3 740 1355 742.7C1392.7 745.3 1430.3 743.7 1468 742C1505.7 740.3 1543.3 738.7 1581 744.7C1618.7 750.7 1656.3 764.3 1694 771.3C1731.7 778.3 1769.3 778.7 1807 778.5C1844.7 778.3 1882.3 777.7 1901.2 777.3L1920 777L1920 1081L1901.2 1081C1882.3 1081 1844.7 1081 1807 1081C1769.3 1081 1731.7 1081 1694 1081C1656.3 1081 1618.7 1081 1581 1081C1543.3 1081 1505.7 1081 1468 1081C1430.3 1081 1392.7 1081 1355 1081C1317.3 1081 1279.7 1081 1242 1081C1204.3 1081 1166.7 1081 1129 1081C1091.3 1081 1053.7 1081 1016.2 1081C978.7 1081 941.3 1081 903.8 1081C866.3 1081 828.7 1081 791 1081C753.3 1081 715.7 1081 678 1081C640.3 1081 602.7 1081 565 1081C527.3 1081 489.7 1081 452 1081C414.3 1081 376.7 1081 339 1081C301.3 1081 263.7 1081 226 1081C188.3 1081 150.7 1081 113 1081C75.3 1081 37.7 1081 18.8 1081L0 1081Z" fill="#008b49"></path><path d="M0 757L18.8 764.5C37.7 772 75.3 787 113 794.5C150.7 802 188.3 802 226 797.5C263.7 793 301.3 784 339 782.8C376.7 781.7 414.3 788.3 452 788.3C489.7 788.3 527.3 781.7 565 777.8C602.7 774 640.3 773 678 771.8C715.7 770.7 753.3 769.3 791 769.8C828.7 770.3 866.3 772.7 903.8 773.3C941.3 774 978.7 773 1016.2 776C1053.7 779 1091.3 786 1129 792C1166.7 798 1204.3 803 1242 804.7C1279.7 806.3 1317.3 804.7 1355 794.7C1392.7 784.7 1430.3 766.3 1468 764.2C1505.7 762 1543.3 776 1581 786.2C1618.7 796.3 1656.3 802.7 1694 803C1731.7 803.3 1769.3 797.7 1807 797.7C1844.7 797.7 1882.3 803.3 1901.2 806.2L1920 809L1920 1081L1901.2 1081C1882.3 1081 1844.7 1081 1807 1081C1769.3 1081 1731.7 1081 1694 1081C1656.3 1081 1618.7 1081 1581 1081C1543.3 1081 1505.7 1081 1468 1081C1430.3 1081 1392.7 1081 1355 1081C1317.3 1081 1279.7 1081 1242 1081C1204.3 1081 1166.7 1081 1129 1081C1091.3 1081 1053.7 1081 1016.2 1081C978.7 1081 941.3 1081 903.8 1081C866.3 1081 828.7 1081 791 1081C753.3 1081 715.7 1081 678 1081C640.3 1081 602.7 1081 565 1081C527.3 1081 489.7 1081 452 1081C414.3 1081 376.7 1081 339 1081C301.3 1081 263.7 1081 226 1081C188.3 1081 150.7 1081 113 1081C75.3 1081 37.7 1081 18.8 1081L0 1081Z" fill="#008049"></path><path d="M0 827L18.8 821.5C37.7 816 75.3 805 113 803C150.7 801 188.3 808 226 816.3C263.7 824.7 301.3 834.3 339 833.3C376.7 832.3 414.3 820.7 452 815.7C489.7 810.7 527.3 812.3 565 816.3C602.7 820.3 640.3 826.7 678 823.7C715.7 820.7 753.3 808.3 791 809C828.7 809.7 866.3 823.3 903.8 825.5C941.3 827.7 978.7 818.3 1016.2 813.2C1053.7 808 1091.3 807 1129 812.2C1166.7 817.3 1204.3 828.7 1242 833.5C1279.7 838.3 1317.3 836.7 1355 836.3C1392.7 836 1430.3 837 1468 831.7C1505.7 826.3 1543.3 814.7 1581 808.8C1618.7 803 1656.3 803 1694 808.5C1731.7 814 1769.3 825 1807 822.2C1844.7 819.3 1882.3 802.7 1901.2 794.3L1920 786L1920 1081L1901.2 1081C1882.3 1081 1844.7 1081 1807 1081C1769.3 1081 1731.7 1081 1694 1081C1656.3 1081 1618.7 1081 1581 1081C1543.3 1081 1505.7 1081 1468 1081C1430.3 1081 1392.7 1081 1355 1081C1317.3 1081 1279.7 1081 1242 1081C1204.3 1081 1166.7 1081 1129 1081C1091.3 1081 1053.7 1081 1016.2 1081C978.7 1081 941.3 1081 903.8 1081C866.3 1081 828.7 1081 791 1081C753.3 1081 715.7 1081 678 1081C640.3 1081 602.7 1081 565 1081C527.3 1081 489.7 1081 452 1081C414.3 1081 376.7 1081 339 1081C301.3 1081 263.7 1081 226 1081C188.3 1081 150.7 1081 113 1081C75.3 1081 37.7 1081 18.8 1081L0 1081Z" fill="#007548"></path><path d="M0 828L18.8 829.8C37.7 831.7 75.3 835.3 113 835.7C150.7 836 188.3 833 226 832.7C263.7 832.3 301.3 834.7 339 833C376.7 831.3 414.3 825.7 452 823.5C489.7 821.3 527.3 822.7 565 828.7C602.7 834.7 640.3 845.3 678 847.8C715.7 850.3 753.3 844.7 791 848C828.7 851.3 866.3 863.7 903.8 867.3C941.3 871 978.7 866 1016.2 865C1053.7 864 1091.3 867 1129 859.8C1166.7 852.7 1204.3 835.3 1242 836C1279.7 836.7 1317.3 855.3 1355 859.2C1392.7 863 1430.3 852 1468 842.2C1505.7 832.3 1543.3 823.7 1581 820.3C1618.7 817 1656.3 819 1694 820C1731.7 821 1769.3 821 1807 823.3C1844.7 825.7 1882.3 830.3 1901.2 832.7L1920 835L1920 1081L1901.2 1081C1882.3 1081 1844.7 1081 1807 1081C1769.3 1081 1731.7 1081 1694 1081C1656.3 1081 1618.7 1081 1581 1081C1543.3 1081 1505.7 1081 1468 1081C1430.3 1081 1392.7 1081 1355 1081C1317.3 1081 1279.7 1081 1242 1081C1204.3 1081 1166.7 1081 1129 1081C1091.3 1081 1053.7 1081 1016.2 1081C978.7 1081 941.3 1081 903.8 1081C866.3 1081 828.7 1081 791 1081C753.3 1081 715.7 1081 678 1081C640.3 1081 602.7 1081 565 1081C527.3 1081 489.7 1081 452 1081C414.3 1081 376.7 1081 339 1081C301.3 1081 263.7 1081 226 1081C188.3 1081 150.7 1081 113 1081C75.3 1081 37.7 1081 18.8 1081L0 1081Z" fill="#006a46"></path><path d="M0 859L18.8 862.7C37.7 866.3 75.3 873.7 113 874.8C150.7 876 188.3 871 226 871.7C263.7 872.3 301.3 878.7 339 876.8C376.7 875 414.3 865 452 863.5C489.7 862 527.3 869 565 871C602.7 873 640.3 870 678 870.2C715.7 870.3 753.3 873.7 791 873.5C828.7 873.3 866.3 869.7 903.8 872.2C941.3 874.7 978.7 883.3 1016.2 890C1053.7 896.7 1091.3 901.3 1129 896.5C1166.7 891.7 1204.3 877.3 1242 869.2C1279.7 861 1317.3 859 1355 866.5C1392.7 874 1430.3 891 1468 900C1505.7 909 1543.3 910 1581 909.8C1618.7 909.7 1656.3 908.3 1694 900.7C1731.7 893 1769.3 879 1807 874.7C1844.7 870.3 1882.3 875.7 1901.2 878.3L1920 881L1920 1081L1901.2 1081C1882.3 1081 1844.7 1081 1807 1081C1769.3 1081 1731.7 1081 1694 1081C1656.3 1081 1618.7 1081 1581 1081C1543.3 1081 1505.7 1081 1468 1081C1430.3 1081 1392.7 1081 1355 1081C1317.3 1081 1279.7 1081 1242 1081C1204.3 1081 1166.7 1081 1129 1081C1091.3 1081 1053.7 1081 1016.2 1081C978.7 1081 941.3 1081 903.8 1081C866.3 1081 828.7 1081 791 1081C753.3 1081 715.7 1081 678 1081C640.3 1081 602.7 1081 565 1081C527.3 1081 489.7 1081 452 1081C414.3 1081 376.7 1081 339 1081C301.3 1081 263.7 1081 226 1081C188.3 1081 150.7 1081 113 1081C75.3 1081 37.7 1081 18.8 1081L0 1081Z" fill="#006043"></path><path d="M0 903L18.8 905.7C37.7 908.3 75.3 913.7 113 912.3C150.7 911 188.3 903 226 901.8C263.7 900.7 301.3 906.3 339 911.8C376.7 917.3 414.3 922.7 452 923C489.7 923.3 527.3 918.7 565 918.7C602.7 918.7 640.3 923.3 678 924.3C715.7 925.3 753.3 922.7 791 922.3C828.7 922 866.3 924 903.8 923.3C941.3 922.7 978.7 919.3 1016.2 921.2C1053.7 923 1091.3 930 1129 925.3C1166.7 920.7 1204.3 904.3 1242 900.7C1279.7 897 1317.3 906 1355 914.5C1392.7 923 1430.3 931 1468 929.2C1505.7 927.3 1543.3 915.7 1581 906.5C1618.7 897.3 1656.3 890.7 1694 894.2C1731.7 897.7 1769.3 911.3 1807 917.7C1844.7 924 1882.3 923 1901.2 922.5L1920 922L1920 1081L1901.2 1081C1882.3 1081 1844.7 1081 1807 1081C1769.3 1081 1731.7 1081 1694 1081C1656.3 1081 1618.7 1081 1581 1081C1543.3 1081 1505.7 1081 1468 1081C1430.3 1081 1392.7 1081 1355 1081C1317.3 1081 1279.7 1081 1242 1081C1204.3 1081 1166.7 1081 1129 1081C1091.3 1081 1053.7 1081 1016.2 1081C978.7 1081 941.3 1081 903.8 1081C866.3 1081 828.7 1081 791 1081C753.3 1081 715.7 1081 678 1081C640.3 1081 602.7 1081 565 1081C527.3 1081 489.7 1081 452 1081C414.3 1081 376.7 1081 339 1081C301.3 1081 263.7 1081 226 1081C188.3 1081 150.7 1081 113 1081C75.3 1081 37.7 1081 18.8 1081L0 1081Z" fill="#00553f"></path><path d="M0 951L18.8 945.7C37.7 940.3 75.3 929.7 113 933C150.7 936.3 188.3 953.7 226 960.2C263.7 966.7 301.3 962.3 339 959.8C376.7 957.3 414.3 956.7 452 958.3C489.7 960 527.3 964 565 964.7C602.7 965.3 640.3 962.7 678 954C715.7 945.3 753.3 930.7 791 929.8C828.7 929 866.3 942 903.8 949.8C941.3 957.7 978.7 960.3 1016.2 959.2C1053.7 958 1091.3 953 1129 952.3C1166.7 951.7 1204.3 955.3 1242 958C1279.7 960.7 1317.3 962.3 1355 965.5C1392.7 968.7 1430.3 973.3 1468 973.2C1505.7 973 1543.3 968 1581 965.2C1618.7 962.3 1656.3 961.7 1694 960.8C1731.7 960 1769.3 959 1807 961.2C1844.7 963.3 1882.3 968.7 1901.2 971.3L1920 974L1920 1081L1901.2 1081C1882.3 1081 1844.7 1081 1807 1081C1769.3 1081 1731.7 1081 1694 1081C1656.3 1081 1618.7 1081 1581 1081C1543.3 1081 1505.7 1081 1468 1081C1430.3 1081 1392.7 1081 1355 1081C1317.3 1081 1279.7 1081 1242 1081C1204.3 1081 1166.7 1081 1129 1081C1091.3 1081 1053.7 1081 1016.2 1081C978.7 1081 941.3 1081 903.8 1081C866.3 1081 828.7 1081 791 1081C753.3 1081 715.7 1081 678 1081C640.3 1081 602.7 1081 565 1081C527.3 1081 489.7 1081 452 1081C414.3 1081 376.7 1081 339 1081C301.3 1081 263.7 1081 226 1081C188.3 1081 150.7 1081 113 1081C75.3 1081 37.7 1081 18.8 1081L0 1081Z" fill="#004a3b"></path><path d="M0 959L18.8 965C37.7 971 75.3 983 113 983.8C150.7 984.7 188.3 974.3 226 969.2C263.7 964 301.3 964 339 971.8C376.7 979.7 414.3 995.3 452 992.8C489.7 990.3 527.3 969.7 565 969.2C602.7 968.7 640.3 988.3 678 995C715.7 1001.7 753.3 995.3 791 995.8C828.7 996.3 866.3 1003.7 903.8 1003C941.3 1002.3 978.7 993.7 1016.2 989.5C1053.7 985.3 1091.3 985.7 1129 987.3C1166.7 989 1204.3 992 1242 985.8C1279.7 979.7 1317.3 964.3 1355 965.3C1392.7 966.3 1430.3 983.7 1468 992.3C1505.7 1001 1543.3 1001 1581 1001.5C1618.7 1002 1656.3 1003 1694 997.5C1731.7 992 1769.3 980 1807 977.3C1844.7 974.7 1882.3 981.3 1901.2 984.7L1920 988L1920 1081L1901.2 1081C1882.3 1081 1844.7 1081 1807 1081C1769.3 1081 1731.7 1081 1694 1081C1656.3 1081 1618.7 1081 1581 1081C1543.3 1081 1505.7 1081 1468 1081C1430.3 1081 1392.7 1081 1355 1081C1317.3 1081 1279.7 1081 1242 1081C1204.3 1081 1166.7 1081 1129 1081C1091.3 1081 1053.7 1081 1016.2 1081C978.7 1081 941.3 1081 903.8 1081C866.3 1081 828.7 1081 791 1081C753.3 1081 715.7 1081 678 1081C640.3 1081 602.7 1081 565 1081C527.3 1081 489.7 1081 452 1081C414.3 1081 376.7 1081 339 1081C301.3 1081 263.7 1081 226 1081C188.3 1081 150.7 1081 113 1081C75.3 1081 37.7 1081 18.8 1081L0 1081Z" fill="#004035"></path><path d="M0 1014L18.8 1012.3C37.7 1010.7 75.3 1007.3 113 1001.8C150.7 996.3 188.3 988.7 226 993C263.7 997.3 301.3 1013.7 339 1020.2C376.7 1026.7 414.3 1023.3 452 1017.5C489.7 1011.7 527.3 1003.3 565 999C602.7 994.7 640.3 994.3 678 1001.3C715.7 1008.3 753.3 1022.7 791 1029.2C828.7 1035.7 866.3 1034.3 903.8 1031.5C941.3 1028.7 978.7 1024.3 1016.2 1019.8C1053.7 1015.3 1091.3 1010.7 1129 1010.3C1166.7 1010 1204.3 1014 1242 1013.7C1279.7 1013.3 1317.3 1008.7 1355 1002.5C1392.7 996.3 1430.3 988.7 1468 985.7C1505.7 982.7 1543.3 984.3 1581 985.5C1618.7 986.7 1656.3 987.3 1694 991.7C1731.7 996 1769.3 1004 1807 1012.5C1844.7 1021 1882.3 1030 1901.2 1034.5L1920 1039L1920 1081L1901.2 1081C1882.3 1081 1844.7 1081 1807 1081C1769.3 1081 1731.7 1081 1694 1081C1656.3 1081 1618.7 1081 1581 1081C1543.3 1081 1505.7 1081 1468 1081C1430.3 1081 1392.7 1081 1355 1081C1317.3 1081 1279.7 1081 1242 1081C1204.3 1081 1166.7 1081 1129 1081C1091.3 1081 1053.7 1081 1016.2 1081C978.7 1081 941.3 1081 903.8 1081C866.3 1081 828.7 1081 791 1081C753.3 1081 715.7 1081 678 1081C640.3 1081 602.7 1081 565 1081C527.3 1081 489.7 1081 452 1081C414.3 1081 376.7 1081 339 1081C301.3 1081 263.7 1081 226 1081C188.3 1081 150.7 1081 113 1081C75.3 1081 37.7 1081 18.8 1081L0 1081Z" fill="#00362f"></path><path d="M0 1067L18.8 1067.2C37.7 1067.3 75.3 1067.7 113 1069.3C150.7 1071 188.3 1074 226 1069.2C263.7 1064.3 301.3 1051.7 339 1048.8C376.7 1046 414.3 1053 452 1052.2C489.7 1051.3 527.3 1042.7 565 1041.2C602.7 1039.7 640.3 1045.3 678 1052C715.7 1058.7 753.3 1066.3 791 1061.7C828.7 1057 866.3 1040 903.8 1036C941.3 1032 978.7 1041 1016.2 1046.8C1053.7 1052.7 1091.3 1055.3 1129 1049.3C1166.7 1043.3 1204.3 1028.7 1242 1030C1279.7 1031.3 1317.3 1048.7 1355 1055.8C1392.7 1063 1430.3 1060 1468 1054C1505.7 1048 1543.3 1039 1581 1035.2C1618.7 1031.3 1656.3 1032.7 1694 1039.2C1731.7 1045.7 1769.3 1057.3 1807 1061C1844.7 1064.7 1882.3 1060.3 1901.2 1058.2L1920 1056L1920 1081L1901.2 1081C1882.3 1081 1844.7 1081 1807 1081C1769.3 1081 1731.7 1081 1694 1081C1656.3 1081 1618.7 1081 1581 1081C1543.3 1081 1505.7 1081 1468 1081C1430.3 1081 1392.7 1081 1355 1081C1317.3 1081 1279.7 1081 1242 1081C1204.3 1081 1166.7 1081 1129 1081C1091.3 1081 1053.7 1081 1016.2 1081C978.7 1081 941.3 1081 903.8 1081C866.3 1081 828.7 1081 791 1081C753.3 1081 715.7 1081 678 1081C640.3 1081 602.7 1081 565 1081C527.3 1081 489.7 1081 452 1081C414.3 1081 376.7 1081 339 1081C301.3 1081 263.7 1081 226 1081C188.3 1081 150.7 1081 113 1081C75.3 1081 37.7 1081 18.8 1081L0 1081Z" fill="#002c28"></path></svg>